<svg width="74" height="75" viewBox="0 0 74 75" fill="none" xmlns="http://www.w3.org/2000/svg">
<path opacity="0.2" fill-rule="evenodd" clip-rule="evenodd" d="M37.4252 74.91C57.1063 74.91 73.0587 58.4742 73.0587 38.1967C73.0587 17.9192 57.1063 1.4834 37.4252 1.4834C17.7441 1.4834 1.79175 17.9192 1.79175 38.1967C1.79175 58.4742 17.7441 74.91 37.4252 74.91ZM37.4252 69.0358C53.9563 69.0358 67.3574 55.2287 67.3574 38.1967C67.3574 21.1647 53.9563 7.35752 37.4252 7.35752C20.8941 7.35752 7.49311 21.1647 7.49311 38.1967C7.49311 55.2287 20.8941 69.0358 37.4252 69.0358Z" fill="#8A6D3B"/>
<g opacity="0.2">
<path d="M35.2872 30.1198C35.2872 32.4567 34.3862 34.6978 32.7823 36.3502C31.1785 38.0027 29.0033 38.931 26.7351 38.931C24.467 38.931 22.2918 38.0027 20.6879 36.3502C19.0841 34.6978 18.1831 32.4567 18.1831 30.1198C18.1831 27.7829 19.0841 25.5417 20.6879 23.8893C22.2918 22.2369 24.467 21.3086 26.7351 21.3086C29.0033 21.3086 31.1785 22.2369 32.7823 23.8893C34.3862 25.5417 35.2872 27.7829 35.2872 30.1198Z" fill="#8A6D3B"/>
<path fill-rule="evenodd" clip-rule="evenodd" d="M26.7351 33.0568C27.4912 33.0568 28.2163 32.7474 28.7509 32.1966C29.2855 31.6458 29.5858 30.8987 29.5858 30.1198C29.5858 29.3408 29.2855 28.5938 28.7509 28.043C28.2163 27.4922 27.4912 27.1827 26.7351 27.1827C25.9791 27.1827 25.254 27.4922 24.7194 28.043C24.1848 28.5938 23.8845 29.3408 23.8845 30.1198C23.8845 30.8987 24.1848 31.6458 24.7194 32.1966C25.254 32.7474 25.9791 33.0568 26.7351 33.0568ZM26.7351 38.931C29.0033 38.931 31.1785 38.0027 32.7823 36.3502C34.3862 34.6978 35.2872 32.4567 35.2872 30.1198C35.2872 27.7829 34.3862 25.5417 32.7823 23.8893C31.1785 22.2369 29.0033 21.3086 26.7351 21.3086C24.467 21.3086 22.2918 22.2369 20.6879 23.8893C19.0841 25.5417 18.1831 27.7829 18.1831 30.1198C18.1831 32.4567 19.0841 34.6978 20.6879 36.3502C22.2918 38.0027 24.467 38.931 26.7351 38.931Z" fill="#8A6D3B"/>
<path fill-rule="evenodd" clip-rule="evenodd" d="M26.8778 41.1339C25.7437 41.1339 24.6561 41.5981 23.8542 42.4243C23.0523 43.2505 22.6017 44.3711 22.6017 45.5395V49.9451C22.6017 50.724 22.3014 51.4711 21.7668 52.0219C21.2322 52.5727 20.5071 52.8821 19.7511 52.8821C18.995 52.8821 18.2699 52.5727 17.7353 52.0219C17.2007 51.4711 16.9004 50.724 16.9004 49.9451V45.5395C16.9004 42.8131 17.9516 40.1984 19.8227 38.2706C21.6938 36.3428 24.2316 35.2598 26.8778 35.2598C29.5239 35.2598 32.0617 36.3428 33.9328 38.2706C35.804 40.1984 36.8551 42.8131 36.8551 45.5395V47.008C36.8551 47.787 36.5548 48.534 36.0202 49.0848C35.4856 49.6356 34.7605 49.9451 34.0045 49.9451C33.2484 49.9451 32.5233 49.6356 31.9887 49.0848C31.4541 48.534 31.1538 47.787 31.1538 47.008V45.5395C31.1538 44.3711 30.7033 43.2505 29.9014 42.4243C29.0995 41.5981 28.0118 41.1339 26.8778 41.1339Z" fill="#8A6D3B"/>
<path d="M43.8394 30.1198C43.8394 32.4567 44.7404 34.6978 46.3442 36.3502C47.948 38.0027 50.1233 38.931 52.3914 38.931C54.6595 38.931 56.8348 38.0027 58.4386 36.3502C60.0424 34.6978 60.9434 32.4567 60.9434 30.1198C60.9434 27.7829 60.0424 25.5417 58.4386 23.8893C56.8348 22.2369 54.6595 21.3086 52.3914 21.3086C50.1233 21.3086 47.948 22.2369 46.3442 23.8893C44.7404 25.5417 43.8394 27.7829 43.8394 30.1198Z" fill="#8A6D3B"/>
<path fill-rule="evenodd" clip-rule="evenodd" d="M52.3914 33.0568C51.6353 33.0568 50.9103 32.7474 50.3757 32.1966C49.841 31.6458 49.5407 30.8987 49.5407 30.1198C49.5407 29.3408 49.841 28.5938 50.3757 28.043C50.9103 27.4922 51.6353 27.1827 52.3914 27.1827C53.1474 27.1827 53.8725 27.4922 54.4071 28.043C54.9417 28.5938 55.2421 29.3408 55.2421 30.1198C55.2421 30.8987 54.9417 31.6458 54.4071 32.1966C53.8725 32.7474 53.1474 33.0568 52.3914 33.0568ZM52.3914 38.931C50.1233 38.931 47.948 38.0027 46.3442 36.3502C44.7404 34.6978 43.8394 32.4567 43.8394 30.1198C43.8394 27.7829 44.7404 25.5417 46.3442 23.8893C47.948 22.2369 50.1233 21.3086 52.3914 21.3086C54.6595 21.3086 56.8348 22.2369 58.4386 23.8893C60.0424 25.5417 60.9434 27.7829 60.9434 30.1198C60.9434 32.4567 60.0424 34.6978 58.4386 36.3502C56.8348 38.0027 54.6595 38.931 52.3914 38.931Z" fill="#8A6D3B"/>
<path fill-rule="evenodd" clip-rule="evenodd" d="M52.2489 41.1339C53.3829 41.1339 54.4706 41.5981 55.2725 42.4243C56.0744 43.2505 56.5249 44.3711 56.5249 45.5395V49.9451C56.5249 50.724 56.8252 51.4711 57.3598 52.0219C57.8944 52.5727 58.6195 52.8821 59.3756 52.8821C60.1316 52.8821 60.8567 52.5727 61.3913 52.0219C61.9259 51.4711 62.2262 50.724 62.2262 49.9451V45.5395C62.2262 42.8131 61.175 40.1984 59.3039 38.2706C57.4328 36.3428 54.895 35.2598 52.2489 35.2598C49.6027 35.2598 47.0649 36.3428 45.1938 38.2706C43.3227 40.1984 42.2715 42.8131 42.2715 45.5395V47.008C42.2715 47.787 42.5718 48.534 43.1064 49.0848C43.641 49.6356 44.3661 49.9451 45.1222 49.9451C45.8782 49.9451 46.6033 49.6356 47.1379 49.0848C47.6725 48.534 47.9728 47.787 47.9728 47.008V45.5395C47.9728 44.3711 48.4233 43.2505 49.2253 42.4243C50.0272 41.5981 51.1148 41.1339 52.2489 41.1339Z" fill="#8A6D3B"/>
<path fill-rule="evenodd" clip-rule="evenodd" d="M39.7059 49.211C38.5718 49.211 37.4842 49.6752 36.6823 50.5014C35.8804 51.3276 35.4299 52.4482 35.4299 53.6166V58.0222C35.4299 58.8012 35.1295 59.5482 34.5949 60.099C34.0603 60.6499 33.3352 60.9593 32.5792 60.9593C31.8231 60.9593 31.0981 60.6499 30.5635 60.099C30.0289 59.5482 29.7285 58.8012 29.7285 58.0222V53.6166C29.7285 50.8903 30.7797 48.2756 32.6508 46.3478C34.5219 44.42 37.0597 43.3369 39.7059 43.3369C42.3521 43.3369 44.8898 44.42 46.761 46.3478C48.6321 48.2756 49.6833 50.8903 49.6833 53.6166V58.0222C49.6833 58.8012 49.3829 59.5482 48.8483 60.099C48.3137 60.6499 47.5886 60.9593 46.8326 60.9593C46.0765 60.9593 45.3515 60.6499 44.8169 60.099C44.2822 59.5482 43.9819 58.8012 43.9819 58.0222V53.6166C43.9819 52.4482 43.5314 51.3276 42.7295 50.5014C41.9276 49.6752 40.84 49.211 39.7059 49.211Z" fill="#8A6D3B"/>
<path d="M48.1153 38.1969C48.1153 40.5338 47.2143 42.775 45.6105 44.4274C44.0067 46.0798 41.8314 47.0081 39.5633 47.0081C37.2951 47.0081 35.1199 46.0798 33.5161 44.4274C31.9122 42.775 31.0112 40.5338 31.0112 38.1969C31.0112 35.8601 31.9122 33.6189 33.5161 31.9665C35.1199 30.3141 37.2951 29.3857 39.5633 29.3857C41.8314 29.3857 44.0067 30.3141 45.6105 31.9665C47.2143 33.6189 48.1153 35.8601 48.1153 38.1969Z" fill="#8A6D3B"/>
<path fill-rule="evenodd" clip-rule="evenodd" d="M39.5633 41.134C40.3193 41.134 41.0444 40.8246 41.579 40.2737C42.1136 39.7229 42.4139 38.9759 42.4139 38.1969C42.4139 37.418 42.1136 36.6709 41.579 36.1201C41.0444 35.5693 40.3193 35.2599 39.5633 35.2599C38.8072 35.2599 38.0821 35.5693 37.5475 36.1201C37.0129 36.6709 36.7126 37.418 36.7126 38.1969C36.7126 38.9759 37.0129 39.7229 37.5475 40.2737C38.0821 40.8246 38.8072 41.134 39.5633 41.134ZM39.5633 47.0081C41.8314 47.0081 44.0067 46.0798 45.6105 44.4274C47.2143 42.775 48.1153 40.5338 48.1153 38.1969C48.1153 35.8601 47.2143 33.6189 45.6105 31.9665C44.0067 30.3141 41.8314 29.3857 39.5633 29.3857C37.2951 29.3857 35.1199 30.3141 33.5161 31.9665C31.9122 33.6189 31.0112 35.8601 31.0112 38.1969C31.0112 40.5338 31.9122 42.775 33.5161 44.4274C35.1199 46.0798 37.2951 47.0081 39.5633 47.0081Z" fill="#8A6D3B"/>
<path d="M19.6086 41.1338H33.862V52.882H19.6086V41.1338ZM45.2648 41.1338H59.5181V52.882H45.2648V41.1338Z" fill="#8A6D3B"/>
<path d="M33.8619 47.0078H45.2646L46.6899 60.9589H32.4365L33.8619 47.0078Z" fill="#8A6D3B"/>
</g>
<path fill-rule="evenodd" clip-rule="evenodd" d="M21.7466 33.7908C23.2587 33.7908 24.7089 33.1719 25.7781 32.0703C26.8473 30.9687 27.448 29.4746 27.448 27.9167C27.448 26.3587 26.8473 24.8646 25.7781 23.763C24.7089 22.6614 23.2587 22.0425 21.7466 22.0425C20.2345 22.0425 18.7844 22.6614 17.7151 23.763C16.6459 24.8646 16.0453 26.3587 16.0453 27.9167C16.0453 29.4746 16.6459 30.9687 17.7151 32.0703C18.7844 33.1719 20.2345 33.7908 21.7466 33.7908ZM21.7466 36.7278C24.0148 36.7278 26.19 35.7995 27.7938 34.1471C29.3976 32.4947 30.2987 30.2535 30.2987 27.9167C30.2987 25.5798 29.3976 23.3386 27.7938 21.6862C26.19 20.0338 24.0148 19.1055 21.7466 19.1055C19.4785 19.1055 17.3032 20.0338 15.6994 21.6862C14.0956 23.3386 13.1946 25.5798 13.1946 27.9167C13.1946 30.2535 14.0956 32.4947 15.6994 34.1471C17.3032 35.7995 19.4785 36.7278 21.7466 36.7278Z" fill="#8A6D3B"/>
<path fill-rule="evenodd" clip-rule="evenodd" d="M18.4798 33.4854C18.6125 33.6218 18.7178 33.7839 18.7897 33.9623C18.8615 34.1407 18.8985 34.332 18.8985 34.5251C18.8985 34.7183 18.8615 34.9096 18.7897 35.088C18.7178 35.2664 18.6125 35.4284 18.4798 35.5648L17.5163 36.5546C15.662 38.4656 14.6202 41.0571 14.62 43.7593V49.2104C14.62 49.5999 14.4698 49.9734 14.2025 50.2489C13.9352 50.5243 13.5727 50.679 13.1946 50.679C12.8166 50.679 12.4541 50.5243 12.1868 50.2489C11.9195 49.9734 11.7693 49.5999 11.7693 49.2104V43.7593C11.7697 40.2782 13.1119 36.9398 15.5008 34.4781L16.4615 33.4854C16.5939 33.3486 16.7512 33.2401 16.9244 33.1661C17.0975 33.0921 17.2832 33.054 17.4706 33.054C17.6581 33.054 17.8438 33.0921 18.0169 33.1661C18.1901 33.2401 18.3474 33.3486 18.4798 33.4854ZM52.095 32.6043C51.9623 32.7407 51.8569 32.9028 51.7851 33.0812C51.7132 33.2596 51.6762 33.4508 51.6762 33.644C51.6762 33.8372 51.7132 34.0284 51.7851 34.2068C51.8569 34.3853 51.9623 34.5473 52.095 34.6837L53.0585 35.6735C53.9768 36.6197 54.7052 37.7429 55.2021 38.979C55.6991 40.2152 55.9548 41.5401 55.9548 42.8781V49.2104C55.9548 49.5999 56.105 49.9734 56.3723 50.2489C56.6396 50.5243 57.0021 50.679 57.3801 50.679C57.7582 50.679 58.1207 50.5243 58.388 50.2489C58.6553 49.9734 58.8055 49.5999 58.8055 49.2104V42.8781C58.8051 39.3971 57.4629 36.0587 55.074 33.597L54.1133 32.6043C53.9809 32.4675 53.8236 32.359 53.6504 32.285C53.4773 32.211 53.2916 32.1729 53.1041 32.1729C52.9167 32.1729 52.731 32.211 52.5578 32.285C52.3847 32.359 52.2274 32.4675 52.095 32.6043Z" fill="#8A6D3B"/>
<path fill-rule="evenodd" clip-rule="evenodd" d="M47.4026 33.7908C45.8905 33.7908 44.4403 33.1719 43.3711 32.0703C42.3019 30.9687 41.7012 29.4746 41.7012 27.9167C41.7012 26.3587 42.3019 24.8646 43.3711 23.763C44.4403 22.6614 45.8905 22.0425 47.4026 22.0425C48.9147 22.0425 50.3649 22.6614 51.4341 23.763C52.5033 24.8646 53.104 26.3587 53.104 27.9167C53.104 29.4746 52.5033 30.9687 51.4341 32.0703C50.3649 33.1719 48.9147 33.7908 47.4026 33.7908ZM47.4026 36.7278C45.1345 36.7278 42.9592 35.7995 41.3554 34.1471C39.7516 32.4947 38.8506 30.2535 38.8506 27.9167C38.8506 25.5798 39.7516 23.3386 41.3554 21.6862C42.9592 20.0338 45.1345 19.1055 47.4026 19.1055C49.6707 19.1055 51.846 20.0338 53.4498 21.6862C55.0536 23.3386 55.9546 25.5798 55.9546 27.9167C55.9546 30.2535 55.0536 32.4947 53.4498 34.1471C51.846 35.7995 49.6707 36.7278 47.4026 36.7278ZM34.5745 46.2733C32.6844 46.2733 30.8717 47.0469 29.5352 48.4239C28.1987 49.8009 27.4478 51.6686 27.4478 53.616V57.4341C27.4478 57.8236 27.2977 58.1971 27.0304 58.4726C26.7631 58.748 26.4005 58.9027 26.0225 58.9027C25.6445 58.9027 25.2819 58.748 25.0146 58.4726C24.7473 58.1971 24.5972 57.8236 24.5972 57.4341V53.616C24.5972 50.8896 25.6484 48.2749 27.5195 46.3471C29.3906 44.4193 31.9284 43.3362 34.5745 43.3362C37.2207 43.3362 39.7585 44.4193 41.6296 46.3471C43.5007 48.2749 44.5519 50.8896 44.5519 53.616V57.4341C44.5519 57.8236 44.4018 58.1971 44.1344 58.4726C43.8671 58.748 43.5046 58.9027 43.1266 58.9027C42.7486 58.9027 42.386 58.748 42.1187 58.4726C41.8514 58.1971 41.7012 57.8236 41.7012 57.4341V53.616C41.7012 51.6686 40.9504 49.8009 39.6139 48.4239C38.2774 47.0469 36.4647 46.2733 34.5745 46.2733Z" fill="#8A6D3B"/>
<path fill-rule="evenodd" clip-rule="evenodd" d="M34.5745 41.8679C36.0866 41.8679 37.5368 41.2491 38.606 40.1474C39.6752 39.0458 40.2759 37.5517 40.2759 35.9938C40.2759 34.4359 39.6752 32.9418 38.606 31.8402C37.5368 30.7386 36.0866 30.1197 34.5745 30.1197C33.0624 30.1197 31.6122 30.7386 30.543 31.8402C29.4738 32.9418 28.8731 34.4359 28.8731 35.9938C28.8731 37.5517 29.4738 39.0458 30.543 40.1474C31.6122 41.2491 33.0624 41.8679 34.5745 41.8679ZM34.5745 44.805C36.8426 44.805 39.0179 43.8767 40.6217 42.2243C42.2255 40.5718 43.1265 38.3307 43.1265 35.9938C43.1265 33.6569 42.2255 31.4158 40.6217 29.7634C39.0179 28.1109 36.8426 27.1826 34.5745 27.1826C32.3064 27.1826 30.1311 28.1109 28.5273 29.7634C26.9235 31.4158 26.0225 33.6569 26.0225 35.9938C26.0225 38.3307 26.9235 40.5718 28.5273 42.2243C30.1311 43.8767 32.3064 44.805 34.5745 44.805Z" fill="#8A6D3B"/>
<path fill-rule="evenodd" clip-rule="evenodd" d="M35.9999 70.5042C54.1046 70.5042 68.7827 55.3812 68.7827 36.7279C68.7827 18.0747 54.1046 2.95171 35.9999 2.95171C17.8953 2.95171 3.21713 18.0747 3.21713 36.7279C3.21713 55.3812 17.8953 70.5042 35.9999 70.5042ZM35.9999 73.4412C55.681 73.4412 71.6334 57.0054 71.6334 36.7279C71.6334 16.4505 55.681 0.0146484 35.9999 0.0146484C16.3189 0.0146484 0.366455 16.4505 0.366455 36.7279C0.366455 57.0054 16.3189 73.4412 35.9999 73.4412Z" fill="#8A6D3B"/>
</svg>
