<svg width="52" height="66" viewBox="0 0 52 66" fill="none" xmlns="http://www.w3.org/2000/svg">
<path d="M15.5 8.5H8.5C6.64349 8.5 4.863 9.23749 3.55024 10.5502C2.23749 11.863 1.5 13.6435 1.5 15.5V57.5C1.5 59.3564 2.23749 61.1369 3.55024 62.4498C4.863 63.7625 6.64349 64.5 8.5 64.5H43.5C45.3564 64.5 47.1369 63.7625 48.4498 62.4498C49.7625 61.1369 50.5 59.3564 50.5 57.5V15.5C50.5 13.6435 49.7625 11.863 48.4498 10.5502C47.1369 9.23749 45.3564 8.5 43.5 8.5H36.5M15.5 8.5C15.5 10.3565 16.2375 12.137 17.5502 13.4498C18.8631 14.7625 20.6436 15.5 22.5 15.5H29.5C31.3564 15.5 33.1369 14.7625 34.4498 13.4498C35.7625 12.137 36.5 10.3565 36.5 8.5M15.5 8.5C15.5 6.64349 16.2375 4.863 17.5502 3.55024C18.8631 2.23749 20.6436 1.5 22.5 1.5H29.5C31.3564 1.5 33.1369 2.23749 34.4498 3.55024C35.7625 4.863 36.5 6.64349 36.5 8.5M26 33H36.5M26 47H36.5M15.5 33H15.535M15.5 47H15.535" stroke="black" stroke-width="2.4" stroke-linecap="round" stroke-linejoin="round"/>
</svg>
