<svg width="70" height="70" viewBox="0 0 70 70" fill="none" xmlns="http://www.w3.org/2000/svg">
<path d="M28 42H42V35H28V42ZM28 31.5H56V24.5H28V31.5ZM28 21H56V14H28V21ZM21 56C19.075 56 17.4265 55.314 16.0545 53.942C14.6825 52.57 13.9977 50.9228 14 49V7.00001C14 5.07501 14.686 3.42651 16.058 2.05451C17.43 0.682506 19.0774 -0.00231811 21 5.89499e-06H63C64.925 5.89499e-06 66.5736 0.686006 67.9456 2.05801C69.3176 3.43001 70.0022 5.07736 70 7.00001V49C70 50.925 69.314 52.5737 67.942 53.9456C66.57 55.3176 64.9228 56.0023 63 56H21ZM21 49H63V7.00001H21V49ZM7.00001 70C5.07501 70 3.42651 69.314 2.05451 67.942C0.682506 66.57 -0.0023181 64.9228 5.89499e-06 63V14H7.00001V63H56V70H7.00001Z" fill="#3C763D"/>
</svg>
