<svg width="74" height="64" viewBox="0 0 74 64" fill="none" xmlns="http://www.w3.org/2000/svg">
<path d="M68.5 11H37L28.0383 2.03825C27.0539 1.05362 25.7188 0.500297 24.3265 0.5H5.5C4.10761 0.5 2.77226 1.05312 1.78769 2.03769C0.803123 3.02226 0.25 4.35761 0.25 5.75V58.25C0.25 59.6424 0.803123 60.9777 1.78769 61.9623C2.77226 62.9469 4.10761 63.5 5.5 63.5H37C38.3924 63.5 39.7277 62.9469 40.7123 61.9623C41.6969 60.9777 42.25 59.6424 42.25 58.25V34.1787L49.0488 40.9512L52.75 37.25L39.625 24.125L26.5 37.25L30.2013 40.9512L37 34.1787V58.25H5.5V5.75H24.3265L34.8265 16.25H68.5V58.25H52.75V63.5H68.5C69.8924 63.5 71.2277 62.9469 72.2123 61.9623C73.1969 60.9777 73.75 59.6424 73.75 58.25V16.25C73.75 14.8576 73.1969 13.5223 72.2123 12.5377C71.2277 11.5531 69.8924 11 68.5 11Z" fill="#367492"/>
</svg>
