<svg width="30" height="30" viewBox="0 0 30 30" fill="none" xmlns="http://www.w3.org/2000/svg">
<path d="M26.25 7.5H15L11.7994 4.29937C11.4478 3.94772 10.971 3.75011 10.4737 3.75H3.75C3.25272 3.75 2.77581 3.94754 2.42417 4.29917C2.07254 4.65081 1.875 5.12772 1.875 5.625V24.375C1.875 24.8723 2.07254 25.3492 2.42417 25.7008C2.77581 26.0525 3.25272 26.25 3.75 26.25H15C15.4973 26.25 15.9742 26.0525 16.3258 25.7008C16.6775 25.3492 16.875 24.8723 16.875 24.375V15.7781L19.3031 18.1969L20.625 16.875L15.9375 12.1875L11.25 16.875L12.5719 18.1969L15 15.7781V24.375H3.75V5.625H10.4737L14.2237 9.375H26.25V24.375H20.625V26.25H26.25C26.7473 26.25 27.2242 26.0525 27.5758 25.7008C27.9275 25.3492 28.125 24.8723 28.125 24.375V9.375C28.125 8.87772 27.9275 8.40081 27.5758 8.04918C27.2242 7.69754 26.7473 7.5 26.25 7.5Z" fill="white"/>
</svg>
