<svg width="30" height="30" viewBox="0 0 30 30" fill="none" xmlns="http://www.w3.org/2000/svg">
<path d="M10.5 14.25C10.5 14.4489 10.421 14.6397 10.2803 14.7803C10.1397 14.921 9.94891 15 9.75 15C9.55109 15 9.36032 14.921 9.21967 14.7803C9.07902 14.6397 9 14.4489 9 14.25C9 14.0511 9.07902 13.8603 9.21967 13.7197C9.36032 13.579 9.55109 13.5 9.75 13.5C9.94891 13.5 10.1397 13.579 10.2803 13.7197C10.421 13.8603 10.5 14.0511 10.5 14.25ZM9.75 21C9.94891 21 10.1397 20.921 10.2803 20.7803C10.421 20.6397 10.5 20.4489 10.5 20.25C10.5 20.0511 10.421 19.8603 10.2803 19.7197C10.1397 19.579 9.94891 19.5 9.75 19.5C9.55109 19.5 9.36032 19.579 9.21967 19.7197C9.07902 19.8603 9 20.0511 9 20.25C9 20.4489 9.07902 20.6397 9.21967 20.7803C9.36032 20.921 9.55109 21 9.75 21ZM4.5 9C4.5 7.80653 4.97411 6.66193 5.81802 5.81802C6.66193 4.97411 7.80653 4.5 9 4.5H21C22.1935 4.5 23.3381 4.97411 24.182 5.81802C25.0259 6.66193 25.5 7.80653 25.5 9V14.4C24.3393 13.8063 23.0538 13.4978 21.75 13.5H14.25C14.0511 13.5 13.8603 13.579 13.7197 13.7197C13.579 13.8603 13.5 14.0511 13.5 14.25C13.5 14.4489 13.579 14.6397 13.7197 14.7803C13.8603 14.921 14.0511 15 14.25 15H17.0055C15.9219 15.7607 15.0375 16.7713 14.4273 17.9463C13.8171 19.1213 13.499 20.426 13.5 21.75C13.5 23.1 13.824 24.375 14.4 25.5H9C7.80653 25.5 6.66193 25.0259 5.81802 24.182C4.97411 23.3381 4.5 22.1935 4.5 21V9ZM8.25 7.5C8.05109 7.5 7.86032 7.57902 7.71967 7.71967C7.57902 7.86032 7.5 8.05109 7.5 8.25C7.5 8.44891 7.57902 8.63968 7.71967 8.78033C7.86032 8.92098 8.05109 9 8.25 9H21.75C21.9489 9 22.1397 8.92098 22.2803 8.78033C22.421 8.63968 22.5 8.44891 22.5 8.25C22.5 8.05109 22.421 7.86032 22.2803 7.71967C22.1397 7.57902 21.9489 7.5 21.75 7.5H8.25ZM9.75 16.5C10.3467 16.5 10.919 16.2629 11.341 15.841C11.7629 15.419 12 14.8467 12 14.25C12 13.6533 11.7629 13.081 11.341 12.659C10.919 12.2371 10.3467 12 9.75 12C9.15326 12 8.58097 12.2371 8.15901 12.659C7.73705 13.081 7.5 13.6533 7.5 14.25C7.5 14.8467 7.73705 15.419 8.15901 15.841C8.58097 16.2629 9.15326 16.5 9.75 16.5ZM12 20.25C12 19.6533 11.7629 19.081 11.341 18.659C10.919 18.2371 10.3467 18 9.75 18C9.15326 18 8.58097 18.2371 8.15901 18.659C7.73705 19.081 7.5 19.6533 7.5 20.25C7.5 20.8467 7.73705 21.419 8.15901 21.841C8.58097 22.2629 9.15326 22.5 9.75 22.5C10.3467 22.5 10.919 22.2629 11.341 21.841C11.7629 21.419 12 20.8467 12 20.25ZM28.5 21.75C28.5 23.5402 27.7888 25.2571 26.523 26.523C25.2571 27.7888 23.5402 28.5 21.75 28.5C19.9598 28.5 18.2429 27.7888 16.977 26.523C15.7112 25.2571 15 23.5402 15 21.75C15 19.9598 15.7112 18.2429 16.977 16.977C18.2429 15.7112 19.9598 15 21.75 15C23.5402 15 25.2571 15.7112 26.523 16.977C27.7888 18.2429 28.5 19.9598 28.5 21.75ZM22.5 18.75C22.5 18.5511 22.421 18.3603 22.2803 18.2197C22.1397 18.079 21.9489 18 21.75 18C21.5511 18 21.3603 18.079 21.2197 18.2197C21.079 18.3603 21 18.5511 21 18.75V21H18.75C18.5511 21 18.3603 21.079 18.2197 21.2197C18.079 21.3603 18 21.5511 18 21.75C18 21.9489 18.079 22.1397 18.2197 22.2803C18.3603 22.421 18.5511 22.5 18.75 22.5H21V24.75C21 24.9489 21.079 25.1397 21.2197 25.2803C21.3603 25.421 21.5511 25.5 21.75 25.5C21.9489 25.5 22.1397 25.421 22.2803 25.2803C22.421 25.1397 22.5 24.9489 22.5 24.75V22.5H24.75C24.9489 22.5 25.1397 22.421 25.2803 22.2803C25.421 22.1397 25.5 21.9489 25.5 21.75C25.5 21.5511 25.421 21.3603 25.2803 21.2197C25.1397 21.079 24.9489 21 24.75 21H22.5V18.75Z" fill="white"/>
</svg>
