<svg width="50" height="50" viewBox="0 0 50 50" fill="none" xmlns="http://www.w3.org/2000/svg">
<path opacity="0.2" fill-rule="evenodd" clip-rule="evenodd" d="M25.9623 49.9998C39.2392 49.9998 50.0008 39.2382 50.0008 25.9613C50.0008 12.6844 39.2392 1.92285 25.9623 1.92285C12.6854 1.92285 1.92383 12.6844 1.92383 25.9613C1.92383 39.2382 12.6854 49.9998 25.9623 49.9998ZM25.9623 46.1536C37.1142 46.1536 46.1546 37.1132 46.1546 25.9613C46.1546 14.8094 37.1142 5.76901 25.9623 5.76901C14.8104 5.76901 5.76998 14.8094 5.76998 25.9613C5.76998 37.1132 14.8104 46.1536 25.9623 46.1536Z" fill="white"/>
<g opacity="0.2">
<path d="M24.5199 20.673C24.5199 22.2031 23.9121 23.6706 22.8301 24.7525C21.7482 25.8344 20.2808 26.4423 18.7507 26.4423C17.2206 26.4423 15.7532 25.8344 14.6712 24.7525C13.5893 23.6706 12.9814 22.2031 12.9814 20.673C12.9814 19.1429 13.5893 17.6755 14.6712 16.5936C15.7532 15.5116 17.2206 14.9038 18.7507 14.9038C20.2808 14.9038 21.7482 15.5116 22.8301 16.5936C23.9121 17.6755 24.5199 19.1429 24.5199 20.673Z" fill="white"/>
<path fill-rule="evenodd" clip-rule="evenodd" d="M18.7507 22.5961C19.2607 22.5961 19.7498 22.3935 20.1105 22.0329C20.4711 21.6722 20.6738 21.1831 20.6738 20.673C20.6738 20.163 20.4711 19.6739 20.1105 19.3132C19.7498 18.9526 19.2607 18.75 18.7507 18.75C18.2406 18.75 17.7515 18.9526 17.3909 19.3132C17.0302 19.6739 16.8276 20.163 16.8276 20.673C16.8276 21.1831 17.0302 21.6722 17.3909 22.0329C17.7515 22.3935 18.2406 22.5961 18.7507 22.5961ZM18.7507 26.4423C20.2808 26.4423 21.7482 25.8344 22.8301 24.7525C23.9121 23.6706 24.5199 22.2031 24.5199 20.673C24.5199 19.1429 23.9121 17.6755 22.8301 16.5936C21.7482 15.5116 20.2808 14.9038 18.7507 14.9038C17.2206 14.9038 15.7532 15.5116 14.6712 16.5936C13.5893 17.6755 12.9814 19.1429 12.9814 20.673C12.9814 22.2031 13.5893 23.6706 14.6712 24.7525C15.7532 25.8344 17.2206 26.4423 18.7507 26.4423Z" fill="white"/>
<path fill-rule="evenodd" clip-rule="evenodd" d="M18.847 27.8845C18.0819 27.8845 17.3482 28.1884 16.8072 28.7294C16.2663 29.2703 15.9624 30.0041 15.9624 30.7691V33.6537C15.9624 34.1637 15.7598 34.6529 15.3991 35.0135C15.0385 35.3742 14.5493 35.5768 14.0393 35.5768C13.5293 35.5768 13.0401 35.3742 12.6795 35.0135C12.3188 34.6529 12.1162 34.1637 12.1162 33.6537V30.7691C12.1162 28.984 12.8253 27.272 14.0876 26.0097C15.3499 24.7475 17.0619 24.0383 18.847 24.0383C20.6321 24.0383 22.3441 24.7475 23.6064 26.0097C24.8686 27.272 25.5777 28.984 25.5777 30.7691V31.7306C25.5777 32.2407 25.3751 32.7298 25.0145 33.0905C24.6538 33.4511 24.1647 33.6537 23.6547 33.6537C23.1446 33.6537 22.6555 33.4511 22.2949 33.0905C21.9342 32.7298 21.7316 32.2407 21.7316 31.7306V30.7691C21.7316 30.0041 21.4277 29.2703 20.8867 28.7294C20.3457 28.1884 19.612 27.8845 18.847 27.8845Z" fill="white"/>
<path d="M30.2891 20.673C30.2891 22.2031 30.8969 23.6706 31.9788 24.7525C33.0608 25.8344 34.5282 26.4423 36.0583 26.4423C37.5884 26.4423 39.0558 25.8344 40.1378 24.7525C41.2197 23.6706 41.8275 22.2031 41.8275 20.673C41.8275 19.1429 41.2197 17.6755 40.1378 16.5936C39.0558 15.5116 37.5884 14.9038 36.0583 14.9038C34.5282 14.9038 33.0608 15.5116 31.9788 16.5936C30.8969 17.6755 30.2891 19.1429 30.2891 20.673Z" fill="white"/>
<path fill-rule="evenodd" clip-rule="evenodd" d="M36.0583 22.5961C35.5483 22.5961 35.0591 22.3935 34.6985 22.0329C34.3378 21.6722 34.1352 21.1831 34.1352 20.673C34.1352 20.163 34.3378 19.6739 34.6985 19.3132C35.0591 18.9526 35.5483 18.75 36.0583 18.75C36.5683 18.75 37.0575 18.9526 37.4181 19.3132C37.7788 19.6739 37.9814 20.163 37.9814 20.673C37.9814 21.1831 37.7788 21.6722 37.4181 22.0329C37.0575 22.3935 36.5683 22.5961 36.0583 22.5961ZM36.0583 26.4423C34.5282 26.4423 33.0608 25.8344 31.9788 24.7525C30.8969 23.6706 30.2891 22.2031 30.2891 20.673C30.2891 19.1429 30.8969 17.6755 31.9788 16.5936C33.0608 15.5116 34.5282 14.9038 36.0583 14.9038C37.5884 14.9038 39.0558 15.5116 40.1378 16.5936C41.2197 17.6755 41.8275 19.1429 41.8275 20.673C41.8275 22.2031 41.2197 23.6706 40.1378 24.7525C39.0558 25.8344 37.5884 26.4423 36.0583 26.4423Z" fill="white"/>
<path fill-rule="evenodd" clip-rule="evenodd" d="M35.9622 27.8845C36.7273 27.8845 37.461 28.1884 38.0019 28.7294C38.5429 29.2703 38.8468 30.0041 38.8468 30.7691V33.6537C38.8468 34.1637 39.0494 34.6529 39.4101 35.0135C39.7707 35.3742 40.2599 35.5768 40.7699 35.5768C41.2799 35.5768 41.7691 35.3742 42.1297 35.0135C42.4904 34.6529 42.693 34.1637 42.693 33.6537V30.7691C42.693 28.984 41.9839 27.272 40.7216 26.0097C39.4593 24.7475 37.7473 24.0383 35.9622 24.0383C34.1771 24.0383 32.4651 24.7475 31.2028 26.0097C29.9406 27.272 29.2314 28.984 29.2314 30.7691V31.7306C29.2314 32.2407 29.4341 32.7298 29.7947 33.0905C30.1553 33.4511 30.6445 33.6537 31.1545 33.6537C31.6646 33.6537 32.1537 33.4511 32.5143 33.0905C32.875 32.7298 33.0776 32.2407 33.0776 31.7306V30.7691C33.0776 30.0041 33.3815 29.2703 33.9225 28.7294C34.4635 28.1884 35.1972 27.8845 35.9622 27.8845Z" fill="white"/>
<path fill-rule="evenodd" clip-rule="evenodd" d="M27.5013 33.1731C26.7362 33.1731 26.0025 33.477 25.4615 34.0179C24.9206 34.5589 24.6167 35.2926 24.6167 36.0577V38.9423C24.6167 39.4523 24.4141 39.9415 24.0534 40.3021C23.6928 40.6628 23.2036 40.8654 22.6936 40.8654C22.1836 40.8654 21.6944 40.6628 21.3338 40.3021C20.9731 39.9415 20.7705 39.4523 20.7705 38.9423V36.0577C20.7705 34.2726 21.4796 32.5606 22.7419 31.2983C24.0042 30.036 25.7162 29.3269 27.5013 29.3269C29.2864 29.3269 30.9984 30.036 32.2606 31.2983C33.5229 32.5606 34.232 34.2726 34.232 36.0577V38.9423C34.232 39.4523 34.0294 39.9415 33.6688 40.3021C33.3081 40.6628 32.819 40.8654 32.309 40.8654C31.7989 40.8654 31.3098 40.6628 30.9491 40.3021C30.5885 39.9415 30.3859 39.4523 30.3859 38.9423V36.0577C30.3859 35.2926 30.082 34.5589 29.541 34.0179C29 33.477 28.2663 33.1731 27.5013 33.1731Z" fill="white"/>
<path d="M33.1742 25.9616C33.1742 27.4917 32.5664 28.9591 31.4844 30.0411C30.4025 31.123 28.9351 31.7308 27.405 31.7308C25.8749 31.7308 24.4075 31.123 23.3255 30.0411C22.2436 28.9591 21.6357 27.4917 21.6357 25.9616C21.6357 24.4315 22.2436 22.9641 23.3255 21.8822C24.4075 20.8002 25.8749 20.1924 27.405 20.1924C28.9351 20.1924 30.4025 20.8002 31.4844 21.8822C32.5664 22.9641 33.1742 24.4315 33.1742 25.9616Z" fill="white"/>
<path fill-rule="evenodd" clip-rule="evenodd" d="M27.405 27.8847C27.915 27.8847 28.4041 27.6821 28.7648 27.3214C29.1254 26.9608 29.3281 26.4716 29.3281 25.9616C29.3281 25.4516 29.1254 24.9624 28.7648 24.6018C28.4041 24.2411 27.915 24.0385 27.405 24.0385C26.8949 24.0385 26.4058 24.2411 26.0452 24.6018C25.6845 24.9624 25.4819 25.4516 25.4819 25.9616C25.4819 26.4716 25.6845 26.9608 26.0452 27.3214C26.4058 27.6821 26.8949 27.8847 27.405 27.8847ZM27.405 31.7308C28.9351 31.7308 30.4025 31.123 31.4844 30.0411C32.5664 28.9591 33.1742 27.4917 33.1742 25.9616C33.1742 24.4315 32.5664 22.9641 31.4844 21.8822C30.4025 20.8002 28.9351 20.1924 27.405 20.1924C25.8749 20.1924 24.4075 20.8002 23.3255 21.8822C22.2436 22.9641 21.6357 24.4315 21.6357 25.9616C21.6357 27.4917 22.2436 28.9591 23.3255 30.0411C24.4075 31.123 25.8749 31.7308 27.405 31.7308Z" fill="white"/>
<path d="M13.9434 27.8845H23.5587V35.5768H13.9434V27.8845ZM31.2511 27.8845H40.8664V35.5768H31.2511V27.8845Z" fill="white"/>
<path d="M23.5582 31.7307H31.2505L32.2121 40.8653H22.5967L23.5582 31.7307Z" fill="white"/>
</g>
<path fill-rule="evenodd" clip-rule="evenodd" d="M15.3854 23.0768C16.4055 23.0768 17.3838 22.6716 18.1051 21.9503C18.8264 21.229 19.2316 20.2507 19.2316 19.2307C19.2316 18.2106 18.8264 17.2323 18.1051 16.511C17.3838 15.7897 16.4055 15.3845 15.3854 15.3845C14.3654 15.3845 13.3871 15.7897 12.6658 16.511C11.9445 17.2323 11.5393 18.2106 11.5393 19.2307C11.5393 20.2507 11.9445 21.229 12.6658 21.9503C13.3871 22.6716 14.3654 23.0768 15.3854 23.0768ZM15.3854 24.9999C16.9155 24.9999 18.383 24.3921 19.4649 23.3101C20.5468 22.2282 21.1547 20.7608 21.1547 19.2307C21.1547 17.7006 20.5468 16.2331 19.4649 15.1512C18.383 14.0693 16.9155 13.4614 15.3854 13.4614C13.8553 13.4614 12.3879 14.0693 11.306 15.1512C10.224 16.2331 9.61621 17.7006 9.61621 19.2307C9.61621 20.7608 10.224 22.2282 11.306 23.3101C12.3879 24.3921 13.8553 24.9999 15.3854 24.9999Z" fill="white"/>
<path fill-rule="evenodd" clip-rule="evenodd" d="M13.1812 22.8767C13.2708 22.9661 13.3418 23.0722 13.3903 23.189C13.4388 23.3058 13.4637 23.431 13.4637 23.5575C13.4637 23.684 13.4388 23.8092 13.3903 23.926C13.3418 24.0429 13.2708 24.149 13.1812 24.2383L12.5312 24.8864C11.2803 26.1376 10.5775 27.8344 10.5774 29.6037V33.1729C10.5774 33.4279 10.4761 33.6725 10.2957 33.8528C10.1154 34.0331 9.87085 34.1344 9.61584 34.1344C9.36082 34.1344 9.11625 34.0331 8.93593 33.8528C8.7556 33.6725 8.6543 33.4279 8.6543 33.1729V29.6037C8.65457 27.3244 9.56004 25.1385 11.1716 23.5267L11.8197 22.8767C11.909 22.7872 12.0151 22.7162 12.1319 22.6677C12.2487 22.6192 12.374 22.5943 12.5005 22.5943C12.6269 22.5943 12.7522 22.6192 12.869 22.6677C12.9858 22.7162 13.0919 22.7872 13.1812 22.8767ZM35.8581 22.2998C35.7686 22.3891 35.6976 22.4952 35.6491 22.6121C35.6006 22.7289 35.5757 22.8541 35.5757 22.9806C35.5757 23.1071 35.6006 23.2323 35.6491 23.3491C35.6976 23.4659 35.7686 23.572 35.8581 23.6614L36.5081 24.3094C37.1276 24.9289 37.619 25.6644 37.9542 26.4738C38.2895 27.2832 38.462 28.1507 38.462 29.0267V33.1729C38.462 33.4279 38.5633 33.6725 38.7436 33.8528C38.9239 34.0331 39.1685 34.1344 39.4235 34.1344C39.6785 34.1344 39.9231 34.0331 40.1034 33.8528C40.2838 33.6725 40.3851 33.4279 40.3851 33.1729V29.0267C40.3848 26.7475 39.4793 24.5616 37.8678 22.9498L37.2197 22.2998C37.1304 22.2103 37.0243 22.1392 36.9074 22.0908C36.7906 22.0423 36.6654 22.0173 36.5389 22.0173C36.4124 22.0173 36.2872 22.0423 36.1704 22.0908C36.0536 22.1392 35.9475 22.2103 35.8581 22.2998Z" fill="white"/>
<path fill-rule="evenodd" clip-rule="evenodd" d="M32.6922 23.0768C31.6722 23.0768 30.6939 22.6716 29.9726 21.9503C29.2513 21.229 28.8461 20.2507 28.8461 19.2307C28.8461 18.2106 29.2513 17.2323 29.9726 16.511C30.6939 15.7897 31.6722 15.3845 32.6922 15.3845C33.7123 15.3845 34.6906 15.7897 35.4119 16.511C36.1332 17.2323 36.5384 18.2106 36.5384 19.2307C36.5384 20.2507 36.1332 21.229 35.4119 21.9503C34.6906 22.6716 33.7123 23.0768 32.6922 23.0768ZM32.6922 24.9999C31.1621 24.9999 29.6947 24.3921 28.6128 23.3101C27.5308 22.2282 26.923 20.7608 26.923 19.2307C26.923 17.7006 27.5308 16.2331 28.6128 15.1512C29.6947 14.0693 31.1621 13.4614 32.6922 13.4614C34.2223 13.4614 35.6898 14.0693 36.7717 15.1512C37.8536 16.2331 38.4615 17.7006 38.4615 19.2307C38.4615 20.7608 37.8536 22.2282 36.7717 23.3101C35.6898 24.3921 34.2223 24.9999 32.6922 24.9999ZM24.0384 31.2499C22.7633 31.2499 21.5405 31.7564 20.6388 32.658C19.7372 33.5596 19.2307 34.7825 19.2307 36.0576V38.5576C19.2307 38.8126 19.1294 39.0572 18.9491 39.2375C18.7687 39.4178 18.5242 39.5191 18.2692 39.5191C18.0141 39.5191 17.7696 39.4178 17.5892 39.2375C17.4089 39.0572 17.3076 38.8126 17.3076 38.5576V36.0576C17.3076 34.2725 18.0168 32.5605 19.279 31.2982C20.5413 30.0359 22.2533 29.3268 24.0384 29.3268C25.8235 29.3268 27.5355 30.0359 28.7978 31.2982C30.06 32.5605 30.7692 34.2725 30.7692 36.0576V38.5576C30.7692 38.8126 30.6679 39.0572 30.4875 39.2375C30.3072 39.4178 30.0626 39.5191 29.8076 39.5191C29.5526 39.5191 29.308 39.4178 29.1277 39.2375C28.9474 39.0572 28.8461 38.8126 28.8461 38.5576V36.0576C28.8461 34.7825 28.3396 33.5596 27.4379 32.658C26.5363 31.7564 25.3135 31.2499 24.0384 31.2499Z" fill="white"/>
<path fill-rule="evenodd" clip-rule="evenodd" d="M24.0388 28.3654C25.0588 28.3654 26.0371 27.9602 26.7584 27.2389C27.4797 26.5176 27.8849 25.5393 27.8849 24.5192C27.8849 23.4992 27.4797 22.5209 26.7584 21.7996C26.0371 21.0783 25.0588 20.6731 24.0388 20.6731C23.0187 20.6731 22.0404 21.0783 21.3191 21.7996C20.5978 22.5209 20.1926 23.4992 20.1926 24.5192C20.1926 25.5393 20.5978 26.5176 21.3191 27.2389C22.0404 27.9602 23.0187 28.3654 24.0388 28.3654ZM24.0388 30.2885C25.5689 30.2885 27.0363 29.6806 28.1182 28.5987C29.2002 27.5168 29.808 26.0493 29.808 24.5192C29.808 22.9891 29.2002 21.5217 28.1182 20.4398C27.0363 19.3578 25.5689 18.75 24.0388 18.75C22.5087 18.75 21.0412 19.3578 19.9593 20.4398C18.8774 21.5217 18.2695 22.9891 18.2695 24.5192C18.2695 26.0493 18.8774 27.5168 19.9593 28.5987C21.0412 29.6806 22.5087 30.2885 24.0388 30.2885Z" fill="white"/>
<path fill-rule="evenodd" clip-rule="evenodd" d="M25.0004 47.1153C37.2138 47.1153 47.1158 37.2133 47.1158 24.9999C47.1158 12.7864 37.2138 2.8845 25.0004 2.8845C12.7869 2.8845 2.88499 12.7864 2.88499 24.9999C2.88499 37.2133 12.7869 47.1153 25.0004 47.1153ZM25.0004 49.0384C38.2773 49.0384 49.0388 38.2768 49.0388 24.9999C49.0388 11.723 38.2773 0.961426 25.0004 0.961426C11.7235 0.961426 0.961914 11.723 0.961914 24.9999C0.961914 38.2768 11.7235 49.0384 25.0004 49.0384Z" fill="white"/>
</svg>
