<svg width="37" height="37" viewBox="0 0 37 37" fill="none" xmlns="http://www.w3.org/2000/svg">
<path d="M12.3333 15.4167C12.1289 15.4167 11.9328 15.4979 11.7883 15.6424C11.6437 15.787 11.5625 15.9831 11.5625 16.1875C11.5625 16.3919 11.6437 16.588 11.7883 16.7326C11.9328 16.8771 12.1289 16.9583 12.3333 16.9583H17.7292C17.9336 16.9583 18.1297 16.8771 18.2742 16.7326C18.4188 16.588 18.5 16.3919 18.5 16.1875C18.5 15.9831 18.4188 15.787 18.2742 15.6424C18.1297 15.4979 17.9336 15.4167 17.7292 15.4167H12.3333ZM11.5625 12.3333C11.5625 12.1289 11.6437 11.9328 11.7883 11.7883C11.9328 11.6437 12.1289 11.5625 12.3333 11.5625H24.2812C24.4857 11.5625 24.6818 11.6437 24.8263 11.7883C24.9709 11.9328 25.0521 12.1289 25.0521 12.3333C25.0521 12.5378 24.9709 12.7338 24.8263 12.8784C24.6818 13.023 24.4857 13.1042 24.2812 13.1042H12.3333C12.1289 13.1042 11.9328 13.023 11.7883 12.8784C11.6437 12.7338 11.5625 12.5378 11.5625 12.3333Z" fill="#A9A9A9"/>
<path fill-rule="evenodd" clip-rule="evenodd" d="M11.5625 21.5833C11.5625 21.3788 11.6437 21.1827 11.7883 21.0382C11.9328 20.8936 12.1289 20.8124 12.3333 20.8124H15.4167C15.6211 20.8124 15.8172 20.8936 15.9617 21.0382C16.1063 21.1827 16.1875 21.3788 16.1875 21.5833V24.6666C16.1875 24.871 16.1063 25.0671 15.9617 25.2116C15.8172 25.3562 15.6211 25.4374 15.4167 25.4374H12.3333C12.1289 25.4374 11.9328 25.3562 11.7883 25.2116C11.6437 25.0671 11.5625 24.871 11.5625 24.6666V21.5833ZM13.1042 23.8958V22.3541H14.6458V23.8958H13.1042ZM21.5833 23.8958C22.1966 23.8958 22.7848 23.6521 23.2185 23.2184C23.6522 22.7848 23.8958 22.1966 23.8958 21.5833C23.8958 20.9699 23.6522 20.3817 23.2185 19.9481C22.7848 19.5144 22.1966 19.2708 21.5833 19.2708C20.97 19.2708 20.3818 19.5144 19.9481 19.9481C19.5145 20.3817 19.2708 20.9699 19.2708 21.5833C19.2708 22.1966 19.5145 22.7848 19.9481 23.2184C20.3818 23.6521 20.97 23.8958 21.5833 23.8958ZM21.5833 22.3541C21.6874 22.3588 21.7913 22.3425 21.8888 22.306C21.9863 22.2695 22.0754 22.2136 22.1507 22.1417C22.2261 22.0698 22.2861 21.9834 22.3271 21.8877C22.3681 21.792 22.3893 21.689 22.3894 21.5848C22.3895 21.4807 22.3685 21.3776 22.3277 21.2818C22.2869 21.186 22.227 21.0995 22.1519 21.0275C22.0767 20.9554 21.9877 20.8994 21.8902 20.8627C21.7928 20.826 21.6889 20.8094 21.5849 20.814C21.3866 20.8226 21.1993 20.9075 21.062 21.0508C20.9247 21.1941 20.8479 21.3848 20.8477 21.5833C20.8475 21.7818 20.9239 21.9727 21.0609 22.1162C21.1979 22.2598 21.3851 22.345 21.5833 22.3541ZM16.9583 27.1194C16.9583 25.4883 20.0394 24.6666 21.5833 24.6666C23.1273 24.6666 26.2083 25.4883 26.2083 27.1194V30.0624H16.9583V27.1194ZM18.5424 27.1502L18.5 27.1941V28.5208H24.6667V27.1949L24.6243 27.1494C24.4979 27.0261 24.2543 26.8627 23.8719 26.7C23.1011 26.3724 22.1499 26.2083 21.5833 26.2083C21.0168 26.2083 20.0656 26.3724 19.2947 26.7C18.9124 26.8619 18.6688 27.0269 18.5424 27.1502Z" fill="#A9A9A9"/>
<path fill-rule="evenodd" clip-rule="evenodd" d="M13.1048 5.39575C13.1048 4.78244 13.3485 4.19425 13.7821 3.76057C14.2158 3.32689 14.804 3.08325 15.4173 3.08325H21.584C22.1973 3.08325 22.7855 3.32689 23.2192 3.76057C23.6528 4.19425 23.8965 4.78244 23.8965 5.39575H26.9798C27.5931 5.39575 28.1813 5.63939 28.615 6.07307C29.0487 6.50675 29.2923 7.09494 29.2923 7.70825V31.6041C29.2923 32.2174 29.0487 32.8056 28.615 33.2393C28.1813 33.6729 27.5931 33.9166 26.9798 33.9166H10.0215C9.40817 33.9166 8.81998 33.6729 8.3863 33.2393C7.95262 32.8056 7.70898 32.2174 7.70898 31.6041V7.70825C7.70898 7.09494 7.95262 6.50675 8.3863 6.07307C8.81998 5.63939 9.40817 5.39575 10.0215 5.39575H13.1048ZM21.584 9.24992C22.1973 9.24992 22.7855 9.00628 23.2192 8.5726C23.6528 8.13893 23.8965 7.55073 23.8965 6.93742H26.9798C27.1843 6.93742 27.3803 7.01863 27.5249 7.16319C27.6694 7.30775 27.7507 7.50381 27.7507 7.70825V31.6041C27.7507 31.8085 27.6694 32.0046 27.5249 32.1491C27.3803 32.2937 27.1843 32.3749 26.9798 32.3749H10.0215C9.81705 32.3749 9.62098 32.2937 9.47642 32.1491C9.33186 32.0046 9.25065 31.8085 9.25065 31.6041V7.70825C9.25065 7.50381 9.33186 7.30775 9.47642 7.16319C9.62098 7.01863 9.81705 6.93742 10.0215 6.93742H13.1048C13.1048 7.55073 13.3485 8.13893 13.7821 8.5726C14.2158 9.00628 14.804 9.24992 15.4173 9.24992H21.584ZM15.4173 4.62492C15.2129 4.62492 15.0168 4.70613 14.8723 4.85069C14.7277 4.99525 14.6465 5.19131 14.6465 5.39575V6.93742C14.6465 7.14186 14.7277 7.33792 14.8723 7.48248C15.0168 7.62704 15.2129 7.70825 15.4173 7.70825H21.584C21.7884 7.70825 21.9845 7.62704 22.129 7.48248C22.2736 7.33792 22.3548 7.14186 22.3548 6.93742V5.39575C22.3548 5.19131 22.2736 4.99525 22.129 4.85069C21.9845 4.70613 21.7884 4.62492 21.584 4.62492H15.4173Z" fill="#A9A9A9"/>
</svg>
