<svg width="35" height="35" viewBox="0 0 35 35" fill="none" xmlns="http://www.w3.org/2000/svg">
<g clip-path="url(#clip0_296_6399)">
<path d="M27.3442 14.2188C27.0366 14.2188 26.7518 14.1618 26.4897 14.0479C26.2277 13.9339 25.9998 13.7801 25.8062 13.5864C25.6125 13.3927 25.453 13.1592 25.3276 12.8857C25.2023 12.6123 25.1453 12.3275 25.1567 12.0312C25.1567 11.7236 25.2137 11.4388 25.3276 11.1768C25.4416 10.9147 25.5954 10.6868 25.7891 10.4932C25.9827 10.2995 26.2163 10.14 26.4897 10.0146C26.7632 9.88932 27.048 9.83236 27.3442 9.84375C27.6519 9.84375 27.9367 9.90072 28.1987 10.0146C28.4608 10.1286 28.6886 10.2824 28.8823 10.4761C29.076 10.6698 29.2355 10.9033 29.3608 11.1768C29.4862 11.4502 29.5431 11.735 29.5317 12.0312C29.5317 12.3389 29.4748 12.6237 29.3608 12.8857C29.2469 13.1478 29.0931 13.3757 28.8994 13.5693C28.7057 13.763 28.4722 13.9225 28.1987 14.0479C27.9253 14.1732 27.6405 14.2301 27.3442 14.2188ZM30.6255 4.375H35.0005V19.0552L19.688 34.3677L10.186 24.8315C7.01872 21.6528 3.83431 18.4798 0.632812 15.3125L15.9453 0H30.6255V4.375ZM16.8682 2.1875L3.74316 15.3125L6.56299 18.1323L20.3203 4.375H28.438V2.1875H16.8682ZM32.813 18.1323V6.5625H21.2432L8.11816 19.6875L19.688 31.2573L32.813 18.1323Z" fill="#ACCE22"/>
</g>
<defs>
<clipPath id="clip0_296_6399">
<rect width="35" height="35" fill="white"/>
</clipPath>
</defs>
</svg>
