<svg width="35" height="35" viewBox="0 0 35 35" fill="none" xmlns="http://www.w3.org/2000/svg">
<g clip-path="url(#clip0_296_6403)">
<path d="M17.5 18.5938C19.8771 18.5938 21.9771 19.1625 23.6833 19.9062C25.2583 20.6062 26.25 22.1812 26.25 23.8875V26.25H8.75V23.9021C8.75 22.1812 9.74167 20.6063 11.3167 19.9208C13.0229 19.1625 15.1229 18.5938 17.5 18.5938ZM5.83333 18.9583C7.4375 18.9583 8.75 17.6458 8.75 16.0417C8.75 14.4375 7.4375 13.125 5.83333 13.125C4.22917 13.125 2.91667 14.4375 2.91667 16.0417C2.91667 17.6458 4.22917 18.9583 5.83333 18.9583ZM7.48125 20.5625C6.94167 20.475 6.40208 20.4167 5.83333 20.4167C4.38958 20.4167 3.01875 20.7229 1.77917 21.2625C1.25083 21.4883 0.800514 21.8645 0.484193 22.3441C0.167873 22.8238 -0.000501209 23.3858 1.12072e-06 23.9604V26.25H6.5625V23.9021C6.5625 22.6917 6.89792 21.5542 7.48125 20.5625ZM29.1667 18.9583C30.7708 18.9583 32.0833 17.6458 32.0833 16.0417C32.0833 14.4375 30.7708 13.125 29.1667 13.125C27.5625 13.125 26.25 14.4375 26.25 16.0417C26.25 17.6458 27.5625 18.9583 29.1667 18.9583ZM35 23.9604C35 22.7792 34.3 21.7292 33.2208 21.2625C31.9421 20.7045 30.5619 20.4166 29.1667 20.4167C28.5979 20.4167 28.0583 20.475 27.5188 20.5625C28.1021 21.5542 28.4375 22.6917 28.4375 23.9021V26.25H35V23.9604ZM17.5 8.75C19.9208 8.75 21.875 10.7042 21.875 13.125C21.875 15.5458 19.9208 17.5 17.5 17.5C15.0792 17.5 13.125 15.5458 13.125 13.125C13.125 10.7042 15.0792 8.75 17.5 8.75Z" fill="#ACCE22"/>
</g>
<defs>
<clipPath id="clip0_296_6403">
<rect width="35" height="35" fill="white"/>
</clipPath>
</defs>
</svg>
