<svg width="30" height="30" viewBox="0 0 30 30" fill="none" xmlns="http://www.w3.org/2000/svg">
<g clip-path="url(#clip0_1057_3115)">
<path d="M20.9833 10.2666L16.0583 15.1083C15.527 14.8524 14.9224 14.7925 14.3513 14.9392C13.7801 15.086 13.2792 15.4299 12.9371 15.9102C12.595 16.3905 12.4337 16.9763 12.4817 17.564C12.5297 18.1518 12.7839 18.7036 13.1994 19.1221C13.6149 19.5405 14.1649 19.7986 14.7523 19.8508C15.3397 19.9029 15.9266 19.7458 16.4093 19.4071C16.8921 19.0683 17.2395 18.5699 17.3903 17.9998C17.5411 17.4297 17.4855 16.8247 17.2333 16.2916L22.1667 11.4499L20.9833 10.2666Z" fill="white"/>
<path d="M15 3.542C12.3772 3.539 9.80842 4.28662 7.5969 5.69656C5.38539 7.10651 3.62355 9.11989 2.51947 11.4989C1.4154 13.8779 1.01519 16.5232 1.36613 19.1224C1.71707 21.7215 2.8045 24.166 4.49997 26.167L4.74997 26.4587H25.25L25.5 26.167C27.1954 24.166 28.2829 21.7215 28.6338 19.1224C28.9848 16.5232 28.5845 13.8779 27.4805 11.4989C26.3764 9.11989 24.6146 7.10651 22.403 5.69656C20.1915 4.28662 17.6227 3.539 15 3.542ZM24.45 24.792H5.54997C4.0547 22.9209 3.15226 20.646 2.95831 18.2587H5.83331V16.592H2.95831C3.09786 13.9459 4.10869 11.4203 5.83331 9.40867L7.87497 11.4503L9.04997 10.2753L7.02497 8.22533C9.01103 6.46995 11.5221 5.42099 14.1666 5.242V8.15867H15.8333V5.25033C18.7545 5.46218 21.4988 6.73002 23.5537 8.8171C25.6086 10.9042 26.8336 13.6678 27 16.592H24.1V18.2587H27.0416C26.8477 20.646 25.9452 22.9209 24.45 24.792Z" fill="white"/>
</g>
<defs>
<clipPath id="clip0_1057_3115">
<rect width="30" height="30" fill="white"/>
</clipPath>
</defs>
</svg>
