<svg width="400" height="350" viewBox="0 0 400 350" fill="none" xmlns="http://www.w3.org/2000/svg">
<path d="M284.652 96.5588C281.153 89.6961 278.715 82.1471 271.465 82.1471H129.596C122.346 82.1471 120.221 89.7304 116.409 96.5588C89.347 146.417 17.4121 287.549 17.4121 287.549C17.4286 291.377 18.8253 295.043 21.2965 297.744C23.7678 300.444 27.1125 301.96 30.5991 301.96H153.688V274.99C153.721 267.564 156.433 260.454 161.23 255.219C166.027 249.984 172.518 247.049 179.281 247.059H221.873C228.647 247.049 235.148 249.993 239.946 255.243C244.745 260.493 247.45 267.62 247.466 275.059V301.96H370.556C374.042 301.96 377.387 300.444 379.858 297.744C382.329 295.043 383.726 291.377 383.743 287.549C383.743 287.549 311.714 149.985 284.652 96.5588Z" fill="white"/>
<path d="M234.874 14.2745C234.85 10.497 233.472 6.88185 231.04 4.21068C228.607 1.53952 225.315 0.0269511 221.875 4.72987e-09H179.282C175.826 -9.72796e-05 172.51 1.50052 170.057 4.17459C167.604 6.84865 166.214 10.4792 166.189 14.2745V67.8724H234.937L234.874 14.2745Z" fill="white"/>
<path d="M318.152 125.794L305.653 102.632C303.528 98.7202 303.59 88.5977 305.653 80.1908L312.59 53.3919C314.778 44.9507 318.277 41.2792 320.402 45.1909L332.902 68.3526C335.027 72.2644 334.964 82.3869 332.902 90.7938L325.965 117.593C323.777 126.034 320.277 129.705 318.152 125.794Z" fill="white"/>
<path d="M350.87 190.098L338.37 166.936C336.245 163.024 336.308 152.902 338.37 144.495L345.307 117.696C347.495 109.255 350.995 105.583 353.12 109.495L365.619 132.657C367.744 136.568 367.682 146.691 365.619 155.098L358.682 181.863C356.494 190.304 353.12 194.01 350.87 190.098Z" fill="white"/>
<path d="M383.555 254.367L371.056 231.205C368.931 227.293 368.993 217.171 371.056 208.764L378.118 181.862C380.305 173.421 383.805 169.749 385.93 173.661L398.43 196.823C400.555 200.735 400.492 210.857 398.43 219.264L391.492 246.063C389.18 254.607 385.68 258.279 383.555 254.367Z" fill="white"/>
<path d="M81.8472 125.794L94.3467 102.632C96.4716 98.7202 96.4091 88.5977 94.3467 80.1908L87.4094 53.3919C85.222 44.9507 81.7222 41.2792 79.5972 45.1909L67.0977 68.3526C64.9728 72.2644 65.0353 82.3869 67.0977 90.7938L74.0349 117.593C76.2224 126.034 79.7222 129.705 81.8472 125.794Z" fill="white"/>
<path d="M49.1299 190.098L61.6294 166.936C63.7543 163.024 63.6918 152.902 61.6294 144.495L54.6922 117.696C52.5047 109.255 49.0049 105.583 46.8799 109.495L34.3804 132.657C32.2555 136.568 32.318 146.691 34.3804 155.098L41.3176 181.863C43.5051 190.304 46.8799 194.01 49.1299 190.098Z" fill="white"/>
<path d="M16.4448 254.367L28.9443 231.205C31.0693 227.293 31.0068 217.171 28.9443 208.764L21.8821 181.862C19.6947 173.421 16.1948 169.749 14.0699 173.661L1.57034 196.823C-0.55458 200.735 -0.492082 210.857 1.57034 219.264L8.50759 246.063C10.82 254.607 14.3199 258.279 16.4448 254.367Z" fill="white"/>
<path d="M179.282 260.784C175.826 260.784 172.51 262.285 170.057 264.959C167.604 267.633 166.214 271.264 166.189 275.059V350H234.937V274.99C234.896 271.213 233.502 267.605 231.058 264.947C228.614 262.288 225.315 260.793 221.875 260.784H179.282Z" fill="white"/>
</svg>
